# Blender 3.6.2
# www.blender.org
mtllib bookshelf.mtl
o object0
v 0.900001 1.400001 0.100000
v 0.900001 0.800000 0.100000
v 0.900001 1.400001 0.600000
v 0.900001 0.100000 0.600000
v 0.900001 0.700001 0.600000
v 0.900001 0.100000 0.100000
v 0.900001 0.700000 0.100000
v 0.900001 0.800001 0.600000
v 0.900001 1.500001 0.600000
v 0.900001 2.100001 0.600000
v 0.900001 1.500001 0.100000
v 0.900001 2.100001 0.100000
v -1.000001 0.800000 -0.000000
v -1.000001 0.000000 0.000000
v -1.000001 0.000000 0.600000
v -1.000001 0.800001 0.600000
v -1.000001 1.500001 -0.000000
v -1.000001 1.500001 0.600000
v -1.000001 2.200001 -0.000000
v -1.000001 2.200001 0.600000
v 1.000001 0.000000 0.000000
v 1.000001 0.800000 -0.000000
v 1.000001 0.000000 0.600000
v 1.000001 0.800001 0.600000
v 1.000001 1.500001 -0.000000
v 1.000001 1.500001 0.600000
v 1.000001 2.200001 -0.000000
v 1.000001 2.200001 0.600000
v -0.900001 0.000000 0.600000
v -0.900001 0.100000 0.600000
v -0.900001 0.700001 0.600000
v -0.900001 0.800001 0.600000
v -0.900001 1.400001 0.600000
v -0.900001 1.500001 0.600000
v -0.900001 2.100001 0.600000
v -0.900001 2.200001 0.600000
v 0.900001 2.200001 0.600000
v 0.900001 0.000000 0.600000
v 0.450000 2.200001 0.600000
v 0.000000 2.200001 0.600000
v 0.450000 2.100001 0.600000
v 0.450000 2.100001 0.100000
v 0.000000 2.100001 0.100000
v 0.000000 2.100001 0.600000
v 0.900001 2.200001 0.100000
v 0.450000 2.200001 -0.000000
v 0.000000 2.200001 -0.000000
v -0.900001 2.100001 0.100000
v -0.450000 2.100001 0.600000
v -0.450000 2.200001 0.600000
v -0.450000 2.100001 0.100000
v -0.450000 2.200001 -0.000000
v -0.900001 2.200001 0.100000
v 0.450000 1.500001 0.100000
v 0.000000 1.500001 0.100000
v -0.450000 1.500001 0.100000
v -0.900001 1.500001 0.100000
v 0.450000 1.400001 0.100000
v 0.450000 0.800000 0.100000
v 0.000000 0.800000 0.100000
v 0.000000 1.400001 0.100000
v -0.450000 1.400001 0.100000
v -0.450000 0.800000 0.100000
v -0.900001 0.800000 0.100000
v -0.900001 1.400001 0.100000
v 0.450000 0.700000 0.100000
v 0.450000 0.100000 0.100000
v 0.000000 0.100000 0.100000
v 0.000000 0.700000 0.100000
v -0.450000 0.700000 0.100000
v -0.450000 0.100000 0.100000
v -0.900001 0.100000 0.100000
v -0.900001 0.700000 0.100000
v 0.000000 1.500001 0.600000
v 0.450000 1.400001 0.600000
v 0.450000 1.500001 0.600000
v 0.000000 1.400001 0.600000
v 0.000000 0.100000 0.600000
v 0.450000 0.000000 0.600000
v 0.450000 0.100000 0.600000
v 0.000000 0.000000 0.600000
v -0.450000 0.000000 0.600000
v -0.450000 0.100000 0.600000
v -0.450000 1.400001 0.600000
v -0.450000 1.500001 0.600000
v -0.450000 0.700001 0.600000
v -0.450000 0.800001 0.600000
v 0.000000 0.700001 0.600000
v 0.000000 0.800001 0.600000
v 0.450000 0.700001 0.600000
v 0.450000 0.800001 0.600000
vn -1.0000 -0.0000 -0.0000
vn 1.0000 -0.0000 -0.0000
vn -0.0000 -0.0000 1.0000
vn -0.0000 1.0000 -0.0000
vn -0.0000 -1.0000 -0.0000
vt 0.000000 0.656250
vt 0.000000 0.359375
vt 0.984375 0.656250
vt 0.984375 0.015625
vt 0.984375 0.312500
vt 0.000000 0.015625
vt 0.000000 0.312500
vt 0.984375 0.359375
vt 0.984375 0.703125
vt 0.984375 1.000000
vt 0.000000 0.703125
vt 0.000000 1.000000
vt 0.000000 0.375000
vt 0.984375 0.375000
vt 0.000000 0.687500
vt 0.984375 0.687500
vt 0.937500 0.062500
vt 0.000000 0.062500
vt 0.937500 0.015625
vt 0.937500 0.328125
vt 0.937500 0.375000
vt 0.937500 0.640625
vt 0.937500 0.703125
vt 0.937500 0.968750
vt 0.921875 0.062500
vt 0.000000 0.953125
vt 0.000000 0.328125
vt 0.000000 0.640625
vt 0.937500 0.687500
vt 0.000000 0.968750
vt 0.937500 1.000000
vt 0.921875 0.953125
vt 0.000000 0.281250
vt 0.000000 0.500000
vt 0.921875 0.734375
vt 0.000000 0.734375
vt 0.000000 0.765625
vt 0.984375 0.765625
vt 0.984375 0.500000
vt 0.812500 0.062500
vt 0.984375 0.281250
vt 0.000000 0.265625
vt 0.921875 0.500000
vt 0.921875 0.281250
vt 0.984375 0.265625
vt 0.984375 0.734375
vt 0.828125 0.953125
vt 0.937500 0.765625
vt 0.937500 0.500000
vt 0.000000 0.531250
vt 0.937500 0.781250
vt 0.000000 0.781250
vt 0.937500 0.531250
vt 0.937500 0.296875
vt 0.000000 0.296875
vt 0.937500 0.265625
s 0
usemtl mtl12
f 1/1/1 2/2/1 3/3/1
f 4/4/1 5/5/1 6/6/1
f 6/6/1 5/5/1 7/7/1
f 8/8/1 3/3/1 2/2/1
f 9/9/1 10/10/1 11/11/1
f 11/11/1 10/10/1 12/12/1
f 13/13/1 14/6/1 15/4/1
f 15/4/1 16/14/1 13/13/1
f 17/15/1 13/13/1 16/14/1
f 16/14/1 18/16/1 17/15/1
f 19/12/1 17/15/1 18/16/1
f 18/16/1 20/10/1 19/12/1
f 21/4/2 22/14/2 23/6/2
f 23/6/2 22/14/2 24/13/2
f 22/14/2 25/16/2 24/13/2
f 26/15/2 24/13/2 25/16/2
f 25/16/2 27/10/2 26/15/2
f 26/15/2 27/10/2 28/12/2
f 29/17/3 30/18/3 15/19/3
f 30/17/3 31/20/3 15/6/3
f 15/6/3 31/20/3 16/13/3
f 16/13/3 31/20/3 32/21/3
f 32/21/3 33/22/3 16/13/3
f 16/13/3 33/22/3 18/11/3
f 18/11/3 33/22/3 34/23/3
f 34/23/3 35/24/3 18/11/3
f 20/12/3 18/11/3 35/24/3
f 35/25/3 36/18/3 20/6/3
f 19/10/4 20/12/4 36/26/4
f 28/6/4 27/4/4 37/18/4
f 23/19/3 4/18/3 38/6/3
f 5/27/3 4/18/3 23/19/3
f 23/19/3 24/21/3 5/27/3
f 5/27/3 24/21/3 8/13/3
f 3/28/3 8/13/3 24/21/3
f 24/21/3 26/29/3 3/28/3
f 3/28/3 26/29/3 9/15/3
f 26/29/3 10/30/3 9/15/3
f 26/29/3 28/31/3 10/30/3
f 28/12/3 37/26/3 10/32/3
f 37/18/4 27/4/4 39/33/4
f 40/34/3 41/35/3 39/36/3
f 10/32/3 39/36/3 41/35/3
f 10/12/5 41/37/5 12/10/5
f 12/10/5 41/37/5 42/38/5
f 42/38/5 41/37/5 43/39/5
f 43/39/5 41/37/5 44/34/5
f 37/18/4 45/40/4 39/33/4
f 39/33/4 27/4/4 46/41/4
f 46/41/4 47/39/4 39/33/4
f 48/4/5 49/42/5 35/6/5
f 39/33/4 47/39/4 40/34/4
f 40/34/3 44/43/3 41/35/3
f 44/43/3 50/33/3 49/44/3
f 51/45/5 49/42/5 48/4/5
f 44/34/5 49/42/5 43/39/5
f 50/36/4 47/39/4 52/46/4
f 36/18/3 49/44/3 50/33/3
f 40/34/4 47/39/4 50/36/4
f 52/46/4 19/10/4 50/36/4
f 10/32/3 37/26/3 39/36/3
f 50/36/4 53/47/4 36/26/4
f 43/39/5 49/42/5 51/45/5
f 36/26/4 50/36/4 19/10/4
f 44/43/3 40/34/3 50/33/3
f 36/18/3 35/25/3 49/44/3
f 12/12/3 42/37/3 11/10/3
f 11/10/3 42/37/3 54/38/3
f 54/38/3 42/37/3 55/39/3
f 55/39/3 42/37/3 43/34/3
f 43/34/3 51/42/3 55/39/3
f 55/39/3 51/42/3 56/45/3
f 56/45/3 51/42/3 57/4/3
f 57/4/3 51/42/3 48/6/3
f 1/12/3 58/37/3 2/10/3
f 2/10/3 58/37/3 59/38/3
f 59/38/3 58/37/3 60/39/3
f 60/39/3 58/37/3 61/34/3
f 61/34/3 62/42/3 60/39/3
f 60/39/3 62/42/3 63/45/3
f 63/45/3 62/42/3 64/4/3
f 64/4/3 62/42/3 65/6/3
f 7/12/3 66/37/3 6/10/3
f 6/10/3 66/37/3 67/38/3
f 67/38/3 66/37/3 68/39/3
f 68/39/3 66/37/3 69/34/3
f 69/34/3 70/42/3 68/39/3
f 68/39/3 70/42/3 71/45/3
f 71/45/3 70/42/3 72/4/3
f 72/4/3 70/42/3 73/6/3
f 31/7/2 30/6/2 72/4/2
f 72/4/2 73/5/2 31/7/2
f 33/1/2 32/2/2 64/8/2
f 64/8/2 65/3/2 33/1/2
f 35/12/2 34/11/2 57/9/2
f 57/9/2 48/10/2 35/12/2
f 74/34/3 75/48/3 76/37/3
f 3/31/3 76/37/3 75/48/3
f 3/12/5 75/37/5 1/10/5
f 1/10/5 75/37/5 58/38/5
f 58/38/5 75/37/5 61/39/5
f 61/39/5 75/37/5 77/34/5
f 9/6/4 11/4/4 76/42/4
f 76/42/4 11/4/4 54/45/4
f 54/45/4 55/39/4 76/42/4
f 76/42/4 55/39/4 74/34/4
f 74/34/3 77/49/3 75/48/3
f 3/31/3 9/12/3 76/37/3
f 78/50/3 79/51/3 80/52/3
f 38/31/3 80/52/3 79/51/3
f 4/6/4 6/4/4 80/42/4
f 80/42/4 6/4/4 67/45/4
f 67/45/4 68/39/4 80/42/4
f 80/42/4 68/39/4 78/34/4
f 78/50/3 81/53/3 79/51/3
f 38/31/3 4/12/3 80/52/3
f 30/18/3 82/54/3 83/55/3
f 81/53/3 83/55/3 82/54/3
f 78/34/4 68/39/4 83/37/4
f 83/37/4 68/39/4 71/38/4
f 71/38/4 72/10/4 83/37/4
f 83/37/4 72/10/4 30/12/4
f 30/18/3 29/17/3 82/54/3
f 81/53/3 78/50/3 83/55/3
f 34/6/3 84/56/3 85/42/3
f 77/49/3 85/42/3 84/56/3
f 77/34/5 84/42/5 61/39/5
f 61/39/5 84/42/5 62/45/5
f 62/45/5 84/42/5 65/4/5
f 65/4/5 84/42/5 33/6/5
f 74/34/4 55/39/4 85/37/4
f 85/37/4 55/39/4 56/38/4
f 56/38/4 57/10/4 85/37/4
f 85/37/4 57/10/4 34/12/4
f 34/6/3 33/19/3 84/56/3
f 77/49/3 74/34/3 85/42/3
f 32/6/3 86/56/3 87/42/3
f 88/49/3 87/42/3 86/56/3
f 88/34/5 86/42/5 69/39/5
f 69/39/5 86/42/5 70/45/5
f 70/45/5 86/42/5 73/4/5
f 73/4/5 86/42/5 31/6/5
f 89/34/4 60/39/4 87/37/4
f 87/37/4 60/39/4 63/38/4
f 63/38/4 64/10/4 87/37/4
f 87/37/4 64/10/4 32/12/4
f 32/6/3 31/19/3 86/56/3
f 88/49/3 89/34/3 87/42/3
f 89/34/3 90/48/3 91/37/3
f 5/31/3 91/37/3 90/48/3
f 5/12/5 90/37/5 7/10/5
f 7/10/5 90/37/5 66/38/5
f 66/38/5 90/37/5 69/39/5
f 69/39/5 90/37/5 88/34/5
f 8/6/4 2/4/4 91/42/4
f 91/42/4 2/4/4 59/45/4
f 59/45/4 60/39/4 91/42/4
f 91/42/4 60/39/4 89/34/4
f 89/34/3 88/49/3 90/48/3
f 5/31/3 8/12/3 91/37/3
