# Blender v2.79 (sub 0) OBJ File: ''
# www.blender.org
mtllib Vase_Orange.mtl
o Vase_Orange_0
v -0.044192 0.162922 0.025514
v -0.051028 0.162922 -0.000000
v -0.044192 0.157037 0.025514
v -0.051028 0.157037 -0.000000
v -0.034215 0.144765 0.019754
v -0.039508 0.144765 -0.000000
v -0.030388 0.131045 0.017545
v -0.035089 0.131045 -0.000000
v -0.035766 0.118244 0.020649
v -0.041299 0.118244 -0.000000
v -0.054388 0.107091 0.031401
v -0.062802 0.107091 -0.000000
v -0.065284 0.097379 0.037691
v -0.075383 0.097379 -0.000000
v -0.069057 0.081461 0.039870
v -0.079740 0.081461 -0.000000
v -0.053711 0.015397 0.031010
v -0.062020 0.015397 -0.000000
v -0.043592 0.005836 0.025168
v -0.050335 0.005836 -0.000000
v -0.031202 -0.000000 0.018014
v -0.036029 -0.000000 -0.000000
v -0.020649 0.118244 0.035766
v -0.031401 0.107091 0.054388
v -0.037691 0.097379 0.065283
v -0.039870 0.081461 0.069057
v -0.031010 0.015397 0.053711
v -0.025168 0.005836 0.043592
v -0.018014 0.000000 0.031202
v -0.000000 0.107091 0.062802
v 0.000000 0.118244 0.041299
v -0.017545 0.131045 0.030388
v -0.019754 0.144765 0.034215
v -0.025514 0.157037 0.044192
v -0.025514 0.162922 0.044192
v 0.000000 0.157037 0.051028
v 0.000000 0.162922 0.051028
v 0.000000 0.144765 0.039508
v 0.000000 0.131045 0.035089
v -0.000000 0.000000 0.036029
v 0.025514 0.157037 0.044192
v 0.025514 0.162922 0.044192
v 0.019754 0.144765 0.034215
v 0.017545 0.131045 0.030388
v 0.020649 0.118244 0.035766
v 0.031401 0.107091 0.054388
v 0.037691 0.097379 0.065283
v -0.000000 0.097379 0.075383
v -0.000000 0.081461 0.079740
v 0.000000 0.015397 0.062020
v -0.000000 0.005836 0.050335
v 0.039870 0.081461 0.069057
v 0.031010 0.015397 0.053711
v 0.025168 0.005836 0.043592
v 0.018014 0.000000 0.031202
v 0.069057 0.081461 0.039870
v 0.065284 0.097379 0.037691
v 0.053711 0.015397 0.031010
v 0.043592 0.005836 0.025168
v 0.031202 -0.000000 0.018014
v 0.079740 0.081461 -0.000000
v 0.075383 0.097379 -0.000000
v 0.054388 0.107091 0.031401
v 0.035766 0.118244 0.020649
v 0.030388 0.131045 0.017545
v 0.034215 0.144765 0.019754
v 0.044192 0.157037 0.025514
v 0.044192 0.162922 0.025514
v 0.051028 0.157037 -0.000000
v 0.051028 0.162922 -0.000000
v 0.039508 0.144765 -0.000000
v 0.035089 0.131045 -0.000000
v 0.041299 0.118244 -0.000000
v 0.062802 0.107091 -0.000000
v 0.062020 0.015397 -0.000000
v 0.050335 0.005836 -0.000000
v 0.036029 -0.000000 -0.000000
v 0.044192 0.162922 -0.025514
v 0.051028 0.162922 -0.000000
v 0.044192 0.157037 -0.025514
v 0.051028 0.157037 -0.000000
v 0.034215 0.144765 -0.019754
v 0.039508 0.144765 -0.000000
v 0.030388 0.131045 -0.017545
v 0.035089 0.131045 -0.000000
v 0.035766 0.118244 -0.020649
v 0.041299 0.118244 -0.000000
v 0.054388 0.107091 -0.031401
v 0.062802 0.107091 -0.000000
v 0.065284 0.097379 -0.037692
v 0.075383 0.097379 -0.000000
v 0.069057 0.081461 -0.039870
v 0.079740 0.081461 -0.000000
v 0.053711 0.015397 -0.031010
v 0.062020 0.015397 -0.000000
v 0.043592 0.005836 -0.025168
v 0.050335 0.005836 -0.000000
v 0.031202 0.000000 -0.018014
v 0.036029 -0.000000 -0.000000
v 0.020649 0.118244 -0.035766
v 0.031401 0.107091 -0.054388
v 0.037691 0.097379 -0.065284
v 0.039870 0.081461 -0.069057
v 0.031010 0.015397 -0.053711
v 0.025168 0.005836 -0.043592
v 0.018014 -0.000000 -0.031202
v 0.000000 0.107091 -0.062802
v 0.000000 0.118244 -0.041299
v 0.017545 0.131045 -0.030388
v 0.019754 0.144765 -0.034215
v 0.025514 0.157037 -0.044192
v 0.025514 0.162922 -0.044192
v -0.000000 0.157037 -0.051028
v -0.000000 0.162922 -0.051028
v -0.000000 0.144765 -0.039508
v -0.000000 0.131045 -0.035089
v 0.000000 -0.000000 -0.036029
v -0.025514 0.157037 -0.044192
v -0.025514 0.162922 -0.044192
v -0.019754 0.144765 -0.034215
v -0.017545 0.131045 -0.030388
v -0.020649 0.118244 -0.035766
v -0.031401 0.107091 -0.054388
v -0.037691 0.097379 -0.065284
v 0.000000 0.097379 -0.075383
v -0.000000 0.081461 -0.079740
v 0.000000 0.015397 -0.062021
v 0.000000 0.005836 -0.050335
v -0.039870 0.081461 -0.069057
v -0.031010 0.015397 -0.053711
v -0.025168 0.005836 -0.043592
v -0.018014 -0.000000 -0.031202
v -0.069057 0.081461 -0.039870
v -0.065284 0.097379 -0.037691
v -0.053711 0.015397 -0.031010
v -0.043592 0.005836 -0.025168
v -0.031202 0.000000 -0.018014
v -0.054388 0.107091 -0.031401
v -0.035766 0.118244 -0.020649
v -0.030388 0.131045 -0.017545
v -0.034215 0.144765 -0.019754
v -0.044192 0.157037 -0.025514
v -0.044192 0.162922 -0.025514
v -0.044192 0.162922 0.025514
v -0.036122 0.162922 0.020855
v -0.051028 0.162922 -0.000000
v -0.041711 0.162922 -0.000000
v -0.020855 0.162922 0.036122
v -0.025514 0.162922 0.044192
v 0.000000 0.162922 0.041711
v 0.000000 0.162922 0.051028
v 0.020855 0.162922 0.036122
v 0.025514 0.162922 0.044192
v 0.036122 0.162922 0.020855
v 0.044192 0.162922 0.025514
v 0.041711 0.162922 -0.000000
v 0.051028 0.162922 -0.000000
v -0.044192 0.162922 -0.025514
v -0.036122 0.162922 -0.020855
v -0.025514 0.162922 -0.044192
v -0.020855 0.162922 -0.036122
v -0.000000 0.162922 -0.051028
v -0.000000 0.162922 -0.041711
v 0.025514 0.162922 -0.044192
v 0.020855 0.162922 -0.036123
v 0.044192 0.162922 -0.025514
v 0.036122 0.162922 -0.020855
v 0.051028 0.162922 -0.000000
v 0.041711 0.162922 -0.000000
v -0.036122 0.162922 0.020855
v -0.000000 0.137905 -0.000000
v -0.041711 0.162922 -0.000000
v -0.020855 0.162922 0.036122
v -0.000000 0.137905 -0.000000
v 0.000000 0.162922 0.041711
v -0.000000 0.137905 -0.000000
v 0.020855 0.162922 0.036122
v -0.000000 0.137905 -0.000000
v 0.036122 0.162922 0.020855
v -0.000000 0.137905 -0.000000
v 0.041711 0.162922 -0.000000
v -0.000000 0.137905 -0.000000
v -0.000000 0.137905 -0.000000
v -0.036122 0.162922 -0.020855
v -0.000000 0.137905 -0.000000
v -0.020855 0.162922 -0.036122
v -0.000000 0.137905 -0.000000
v -0.000000 0.162922 -0.041711
v -0.000000 0.137905 -0.000000
v 0.020855 0.162922 -0.036123
v -0.000000 0.137905 -0.000000
v 0.036122 0.162922 -0.020855
v -0.000000 0.137905 -0.000000
v 0.041711 0.162922 -0.000000
vt 0.527355 0.687631
vt 0.500213 0.687631
vt 0.527355 0.675448
vt 0.500213 0.675448
vt 0.527355 0.649294
vt 0.500213 0.649294
vt 0.527355 0.617487
vt 0.500213 0.617487
vt 0.527355 0.593133
vt 0.500213 0.593133
vt 0.527355 0.565562
vt 0.500213 0.565562
vt 0.527355 0.544780
vt 0.500213 0.544780
vt 0.527355 0.519593
vt 0.500213 0.519593
vt 0.527355 0.436365
vt 0.500213 0.436365
vt 0.527355 0.416420
vt 0.500213 0.416420
vt 0.527355 0.403163
vt 0.500213 0.403163
vt 0.554497 0.593133
vt 0.554497 0.565562
vt 0.554497 0.544780
vt 0.554497 0.519593
vt 0.554497 0.436365
vt 0.554497 0.416420
vt 0.554497 0.403163
vt 0.581639 0.565562
vt 0.581639 0.593133
vt 0.554497 0.617487
vt 0.554497 0.649294
vt 0.554497 0.675448
vt 0.554497 0.687631
vt 0.581639 0.675448
vt 0.581639 0.687631
vt 0.581639 0.649294
vt 0.581639 0.617487
vt 0.581639 0.403163
vt 0.608781 0.675448
vt 0.608781 0.687631
vt 0.608781 0.649294
vt 0.608781 0.617487
vt 0.608781 0.593133
vt 0.608781 0.565562
vt 0.608781 0.544780
vt 0.581639 0.544780
vt 0.581639 0.519593
vt 0.581639 0.436365
vt 0.581639 0.416420
vt 0.608781 0.519593
vt 0.608781 0.436365
vt 0.608781 0.416420
vt 0.608781 0.403163
vt 0.635922 0.519593
vt 0.635922 0.544780
vt 0.635922 0.436365
vt 0.635922 0.416420
vt 0.635922 0.403163
vt 0.663064 0.519593
vt 0.663064 0.544780
vt 0.635922 0.565562
vt 0.635922 0.593133
vt 0.635922 0.617487
vt 0.635922 0.649294
vt 0.635922 0.675448
vt 0.635922 0.687631
vt 0.663064 0.675448
vt 0.663064 0.687631
vt 0.663064 0.649294
vt 0.663064 0.617487
vt 0.663064 0.593133
vt 0.663064 0.565562
vt 0.663064 0.436365
vt 0.663064 0.416420
vt 0.663064 0.403163
vt 0.364419 0.687631
vt 0.337492 0.687631
vt 0.364419 0.675448
vt 0.337492 0.675448
vt 0.364419 0.649294
vt 0.337492 0.649294
vt 0.364419 0.617487
vt 0.337492 0.617487
vt 0.364419 0.593133
vt 0.337492 0.593133
vt 0.364419 0.565562
vt 0.337492 0.565562
vt 0.364419 0.544780
vt 0.337492 0.544780
vt 0.364419 0.519593
vt 0.337492 0.519593
vt 0.364419 0.436365
vt 0.337492 0.436365
vt 0.364419 0.416420
vt 0.337492 0.416420
vt 0.364419 0.403163
vt 0.337492 0.403163
vt 0.391646 0.593133
vt 0.391646 0.565562
vt 0.391646 0.544780
vt 0.391646 0.519593
vt 0.391646 0.436365
vt 0.391646 0.416420
vt 0.391646 0.403163
vt 0.418788 0.565562
vt 0.418788 0.593133
vt 0.391646 0.617487
vt 0.391646 0.649294
vt 0.391646 0.675448
vt 0.391646 0.687631
vt 0.418788 0.675448
vt 0.418788 0.687631
vt 0.418788 0.649294
vt 0.418788 0.617487
vt 0.418788 0.403163
vt 0.445929 0.675448
vt 0.445929 0.687631
vt 0.445929 0.649294
vt 0.445929 0.617487
vt 0.445929 0.593133
vt 0.445929 0.565562
vt 0.445929 0.544780
vt 0.418788 0.544780
vt 0.418788 0.519593
vt 0.418788 0.436365
vt 0.418788 0.416420
vt 0.445929 0.519593
vt 0.445929 0.436365
vt 0.445929 0.416420
vt 0.445929 0.403163
vt 0.473072 0.519593
vt 0.473072 0.544780
vt 0.473072 0.436365
vt 0.473072 0.416420
vt 0.473072 0.403163
vt 0.473072 0.565562
vt 0.473072 0.593133
vt 0.473072 0.617487
vt 0.473072 0.649294
vt 0.473072 0.675448
vt 0.473072 0.687631
vt 0.527355 0.687631
vt 0.527355 0.696609
vt 0.500213 0.687631
vt 0.500213 0.696609
vt 0.554497 0.696609
vt 0.554497 0.687631
vt 0.581639 0.696609
vt 0.581639 0.687631
vt 0.608781 0.696609
vt 0.608781 0.687631
vt 0.635922 0.696609
vt 0.635922 0.687631
vt 0.663064 0.696609
vt 0.663064 0.687631
vt 0.473072 0.687631
vt 0.473072 0.696609
vt 0.445929 0.687631
vt 0.445929 0.696609
vt 0.418788 0.687631
vt 0.418788 0.696609
vt 0.391646 0.687631
vt 0.391646 0.696609
vt 0.364419 0.687631
vt 0.364419 0.696609
vt 0.337492 0.687631
vt 0.337492 0.696609
vt 0.456932 0.087718
vt 0.390023 0.012032
vt 0.390042 0.087718
vt 0.508516 0.087718
vt 0.390023 0.012032
vt 0.561805 0.087718
vt 0.390023 0.012032
vt 0.615095 0.087718
vt 0.390023 0.012032
vt 0.668384 0.087718
vt 0.390023 0.012032
vt 0.741321 0.087718
vt 0.390023 0.012032
vt 0.390023 0.012032
vt 0.348649 0.087718
vt 0.390023 0.012032
vt 0.295359 0.087718
vt 0.390023 0.012032
vt 0.242070 0.087718
vt 0.390023 0.012032
vt 0.190091 0.087718
vt 0.390023 0.012032
vt 0.109366 0.087718
vt 0.390023 0.012032
vt 0.040317 0.087718
vn -0.8660 0.0000 0.5000
vn -1.0000 0.0000 0.0000
vn -0.8116 -0.3488 0.4686
vn -0.9372 -0.3488 0.0000
vn -0.7374 -0.5244 0.4257
vn -0.8515 -0.5244 0.0000
vn -0.8636 0.0747 0.4986
vn -0.9972 0.0747 0.0000
vn -0.5968 0.7246 0.3446
vn -0.6892 0.7246 0.0000
vn -0.4748 0.8363 0.2741
vn -0.5483 0.8363 0.0000
vn -0.7324 0.5336 0.4229
vn -0.8457 0.5336 0.0000
vn -0.8660 0.0025 0.5000
vn -1.0000 0.0025 -0.0000
vn -0.7393 -0.5207 0.4269
vn -0.8537 -0.5207 0.0000
vn -0.4581 -0.8486 0.2645
vn -0.5290 -0.8486 -0.0000
vn -0.3271 -0.9259 0.1889
vn -0.3777 -0.9259 -0.0000
vn -0.3446 0.7246 0.5968
vn -0.2741 0.8363 0.4748
vn -0.4229 0.5336 0.7324
vn -0.5000 0.0025 0.8660
vn -0.4269 -0.5207 0.7393
vn -0.2645 -0.8486 0.4581
vn -0.1889 -0.9259 0.3271
vn -0.0000 0.8363 0.5483
vn 0.0000 0.7246 0.6892
vn -0.4986 0.0747 0.8636
vn -0.4257 -0.5244 0.7374
vn -0.4686 -0.3488 0.8116
vn -0.5000 0.0000 0.8660
vn 0.0000 -0.3488 0.9372
vn 0.0000 0.0000 1.0000
vn 0.0000 -0.5244 0.8515
vn 0.0000 0.0747 0.9972
vn 0.0000 -0.9259 0.3777
vn 0.4686 -0.3488 0.8116
vn 0.5000 0.0000 0.8660
vn 0.4257 -0.5244 0.7374
vn 0.4986 0.0747 0.8636
vn 0.3446 0.7246 0.5968
vn 0.2741 0.8363 0.4748
vn 0.4229 0.5336 0.7324
vn 0.0000 0.5336 0.8457
vn -0.0000 0.0025 1.0000
vn 0.0000 -0.5207 0.8537
vn -0.0000 -0.8486 0.5290
vn 0.5000 0.0025 0.8660
vn 0.4269 -0.5207 0.7393
vn 0.2645 -0.8486 0.4581
vn 0.1889 -0.9259 0.3271
vn 0.8660 0.0025 0.5000
vn 0.7324 0.5336 0.4229
vn 0.7393 -0.5207 0.4269
vn 0.4581 -0.8486 0.2645
vn 0.3271 -0.9259 0.1889
vn 1.0000 0.0025 -0.0000
vn 0.8457 0.5336 0.0000
vn 0.4748 0.8363 0.2741
vn 0.5968 0.7246 0.3446
vn 0.8636 0.0747 0.4986
vn 0.7374 -0.5244 0.4257
vn 0.8116 -0.3488 0.4686
vn 0.8660 0.0000 0.5000
vn 0.9372 -0.3488 0.0000
vn 1.0000 -0.0000 0.0000
vn 0.8515 -0.5244 -0.0000
vn 0.9972 0.0747 -0.0000
vn 0.6892 0.7246 0.0000
vn 0.5483 0.8363 -0.0000
vn 0.8537 -0.5207 0.0000
vn 0.5290 -0.8487 0.0000
vn 0.3777 -0.9259 0.0000
vn 0.8660 -0.0000 -0.5000
vn 0.8116 -0.3488 -0.4686
vn 0.7374 -0.5244 -0.4258
vn 0.8636 0.0747 -0.4986
vn 0.5968 0.7246 -0.3446
vn 0.4748 0.8363 -0.2741
vn 0.7324 0.5336 -0.4229
vn 0.8660 0.0025 -0.5000
vn 0.7393 -0.5207 -0.4269
vn 0.4581 -0.8486 -0.2645
vn 0.3271 -0.9259 -0.1889
vn 0.3446 0.7246 -0.5968
vn 0.2741 0.8363 -0.4748
vn 0.4229 0.5336 -0.7324
vn 0.5000 0.0025 -0.8660
vn 0.4269 -0.5207 -0.7393
vn 0.2645 -0.8486 -0.4581
vn 0.1889 -0.9259 -0.3271
vn 0.0000 0.8363 -0.5483
vn 0.0000 0.7246 -0.6892
vn 0.4986 0.0747 -0.8636
vn 0.4257 -0.5244 -0.7374
vn 0.4686 -0.3488 -0.8116
vn 0.5000 -0.0000 -0.8660
vn -0.0000 -0.3488 -0.9372
vn -0.0000 -0.0000 -1.0000
vn -0.0000 -0.5244 -0.8515
vn -0.0000 0.0747 -0.9972
vn 0.0000 -0.9259 -0.3777
vn -0.4686 -0.3488 -0.8116
vn -0.5000 -0.0000 -0.8660
vn -0.4257 -0.5244 -0.7374
vn -0.4986 0.0747 -0.8636
vn -0.3446 0.7246 -0.5968
vn -0.2741 0.8363 -0.4748
vn -0.4229 0.5336 -0.7324
vn 0.0000 0.5336 -0.8457
vn 0.0000 0.0025 -1.0000
vn 0.0000 -0.5207 -0.8537
vn 0.0000 -0.8486 -0.5290
vn -0.5000 0.0025 -0.8660
vn -0.4269 -0.5207 -0.7393
vn -0.2645 -0.8486 -0.4581
vn -0.1889 -0.9259 -0.3271
vn -0.8660 0.0025 -0.5000
vn -0.7324 0.5336 -0.4229
vn -0.7393 -0.5207 -0.4269
vn -0.4581 -0.8486 -0.2645
vn -0.3271 -0.9259 -0.1889
vn -0.4748 0.8363 -0.2741
vn -0.5968 0.7246 -0.3446
vn -0.8636 0.0747 -0.4986
vn -0.7374 -0.5244 -0.4257
vn -0.8116 -0.3488 -0.4686
vn -0.8660 0.0000 -0.5000
vn 0.0000 1.0000 0.0000
vn 0.4454 0.8576 -0.2572
vn 0.5143 0.8576 0.0000
vn 0.2572 0.8576 -0.4454
vn -0.0000 0.8576 -0.5143
vn -0.2572 0.8576 -0.4454
vn -0.4454 0.8576 -0.2572
vn -0.5143 0.8576 0.0000
vn 0.4454 0.8576 0.2572
vn 0.2572 0.8576 0.4454
vn -0.0000 0.8576 0.5143
vn -0.2572 0.8576 0.4454
vn -0.4454 0.8576 0.2572
usemtl None
s 1
f 1/1/1 2/2/2 3/3/3
f 4/4/4 3/3/3 2/2/2
f 3/3/3 4/4/4 5/5/5
f 6/6/6 5/5/5 4/4/4
f 5/5/5 6/6/6 7/7/7
f 8/8/8 7/7/7 6/6/6
f 7/7/7 8/8/8 9/9/9
f 10/10/10 9/9/9 8/8/8
f 9/9/9 10/10/10 11/11/11
f 12/12/12 11/11/11 10/10/10
f 11/11/11 12/12/12 13/13/13
f 14/14/14 13/13/13 12/12/12
f 13/13/13 14/14/14 15/15/15
f 16/16/16 15/15/15 14/14/14
f 15/15/15 16/16/16 17/17/17
f 18/18/18 17/17/17 16/16/16
f 17/17/17 18/18/18 19/19/19
f 20/20/20 19/19/19 18/18/18
f 19/19/19 20/20/20 21/21/21
f 22/22/22 21/21/21 20/20/20
f 9/9/9 23/23/23 7/7/7
f 23/23/23 9/9/9 24/24/24
f 11/11/11 24/24/24 9/9/9
f 24/24/24 11/11/11 25/25/25
f 13/13/13 25/25/25 11/11/11
f 25/25/25 13/13/13 26/26/26
f 15/15/15 26/26/26 13/13/13
f 26/26/26 15/15/15 27/27/27
f 17/17/17 27/27/27 15/15/15
f 27/27/27 17/17/17 28/28/28
f 19/19/19 28/28/28 17/17/17
f 28/28/28 19/19/19 29/29/29
f 21/21/21 29/29/29 19/19/19
f 24/24/24 30/30/30 23/23/23
f 31/31/31 23/23/23 30/30/30
f 23/23/23 31/31/31 32/32/32
f 32/32/32 7/7/7 23/23/23
f 7/7/7 32/32/32 5/5/5
f 33/33/33 5/5/5 32/32/32
f 5/5/5 33/33/33 3/3/3
f 34/34/34 3/3/3 33/33/33
f 3/3/3 34/34/34 1/1/1
f 35/35/35 1/1/1 34/34/34
f 34/34/34 36/36/36 35/35/35
f 37/37/37 35/35/35 36/36/36
f 36/36/36 34/34/34 38/38/38
f 33/33/33 38/38/38 34/34/34
f 38/38/38 33/33/33 39/39/39
f 32/32/32 39/39/39 33/33/33
f 39/39/39 32/32/32 31/31/31
f 29/29/29 40/40/40 28/28/28
f 36/36/36 41/41/41 37/37/37
f 42/42/42 37/37/37 41/41/41
f 41/41/41 36/36/36 43/43/43
f 38/38/38 43/43/43 36/36/36
f 43/43/43 38/38/38 44/44/44
f 39/39/39 44/44/44 38/38/38
f 44/44/44 39/39/39 45/45/45
f 31/31/31 45/45/45 39/39/39
f 45/45/45 31/31/31 46/46/46
f 30/30/30 46/46/46 31/31/31
f 46/46/46 30/30/30 47/47/47
f 48/48/48 47/47/47 30/30/30
f 30/30/30 24/24/24 48/48/48
f 25/25/25 48/48/48 24/24/24
f 48/48/48 25/25/25 49/49/49
f 26/26/26 49/49/49 25/25/25
f 49/49/49 26/26/26 50/50/50
f 27/27/27 50/50/50 26/26/26
f 50/50/50 27/27/27 51/51/51
f 28/28/28 51/51/51 27/27/27
f 51/51/51 28/28/28 40/40/40
f 47/47/47 48/48/48 52/52/52
f 49/49/49 52/52/52 48/48/48
f 52/52/52 49/49/49 53/53/53
f 50/50/50 53/53/53 49/49/49
f 53/53/53 50/50/50 54/54/54
f 51/51/51 54/54/54 50/50/50
f 54/54/54 51/51/51 55/55/55
f 40/40/40 55/55/55 51/51/51
f 52/52/52 56/56/56 47/47/47
f 57/57/57 47/47/47 56/56/56
f 56/56/56 52/52/52 58/58/58
f 53/53/53 58/58/58 52/52/52
f 58/58/58 53/53/53 59/59/59
f 54/54/54 59/59/59 53/53/53
f 59/59/59 54/54/54 60/60/60
f 55/55/55 60/60/60 54/54/54
f 56/56/56 61/61/61 57/57/57
f 62/62/62 57/57/57 61/61/61
f 57/57/57 62/62/62 63/63/63
f 63/63/63 46/46/46 57/57/57
f 46/46/46 63/63/63 45/45/45
f 64/64/64 45/45/45 63/63/63
f 45/45/45 64/64/64 44/44/44
f 65/65/65 44/44/44 64/64/64
f 44/44/44 65/65/65 43/43/43
f 66/66/66 43/43/43 65/65/65
f 43/43/43 66/66/66 41/41/41
f 67/67/67 41/41/41 66/66/66
f 41/41/41 67/67/67 42/42/42
f 68/68/68 42/42/42 67/67/67
f 67/67/67 69/69/69 68/68/68
f 70/70/70 68/68/68 69/69/69
f 69/69/69 67/67/67 71/71/71
f 66/66/66 71/71/71 67/67/67
f 71/71/71 66/66/66 72/72/72
f 65/65/65 72/72/72 66/66/66
f 64/64/64 73/73/73 65/65/65
f 72/72/72 65/65/65 73/73/73
f 73/73/73 64/64/64 74/74/74
f 63/63/63 74/74/74 64/64/64
f 74/74/74 63/63/63 62/62/62
f 47/47/47 57/57/57 46/46/46
f 61/61/61 56/56/56 75/75/75
f 58/58/58 75/75/75 56/56/56
f 75/75/75 58/58/58 76/76/76
f 59/59/59 76/76/76 58/58/58
f 76/76/76 59/59/59 77/77/77
f 60/60/60 77/77/77 59/59/59
f 78/78/78 79/79/70 80/80/79
f 81/81/69 80/80/79 79/79/70
f 80/80/79 81/81/69 82/82/80
f 83/83/71 82/82/80 81/81/69
f 82/82/80 83/83/71 84/84/81
f 85/85/72 84/84/81 83/83/71
f 84/84/81 85/85/72 86/86/82
f 87/87/73 86/86/82 85/85/72
f 86/86/82 87/87/73 88/88/83
f 89/89/74 88/88/83 87/87/73
f 88/88/83 89/89/74 90/90/84
f 91/91/62 90/90/84 89/89/74
f 90/90/84 91/91/62 92/92/85
f 93/93/61 92/92/85 91/91/62
f 92/92/85 93/93/61 94/94/86
f 95/95/75 94/94/86 93/93/61
f 94/94/86 95/95/75 96/96/87
f 97/97/76 96/96/87 95/95/75
f 96/96/87 97/97/76 98/98/88
f 99/99/77 98/98/88 97/97/76
f 86/86/82 100/100/89 84/84/81
f 100/100/89 86/86/82 101/101/90
f 88/88/83 101/101/90 86/86/82
f 101/101/90 88/88/83 102/102/91
f 90/90/84 102/102/91 88/88/83
f 102/102/91 90/90/84 103/103/92
f 92/92/85 103/103/92 90/90/84
f 103/103/92 92/92/85 104/104/93
f 94/94/86 104/104/93 92/92/85
f 104/104/93 94/94/86 105/105/94
f 96/96/87 105/105/94 94/94/86
f 105/105/94 96/96/87 106/106/95
f 98/98/88 106/106/95 96/96/87
f 101/101/90 107/107/96 100/100/89
f 108/108/97 100/100/89 107/107/96
f 100/100/89 108/108/97 109/109/98
f 109/109/98 84/84/81 100/100/89
f 84/84/81 109/109/98 82/82/80
f 110/110/99 82/82/80 109/109/98
f 82/82/80 110/110/99 80/80/79
f 111/111/100 80/80/79 110/110/99
f 80/80/79 111/111/100 78/78/78
f 112/112/101 78/78/78 111/111/100
f 111/111/100 113/113/102 112/112/101
f 114/114/103 112/112/101 113/113/102
f 113/113/102 111/111/100 115/115/104
f 110/110/99 115/115/104 111/111/100
f 115/115/104 110/110/99 116/116/105
f 109/109/98 116/116/105 110/110/99
f 116/116/105 109/109/98 108/108/97
f 106/106/95 117/117/106 105/105/94
f 113/113/102 118/118/107 114/114/103
f 119/119/108 114/114/103 118/118/107
f 118/118/107 113/113/102 120/120/109
f 115/115/104 120/120/109 113/113/102
f 120/120/109 115/115/104 121/121/110
f 116/116/105 121/121/110 115/115/104
f 121/121/110 116/116/105 122/122/111
f 108/108/97 122/122/111 116/116/105
f 122/122/111 108/108/97 123/123/112
f 107/107/96 123/123/112 108/108/97
f 123/123/112 107/107/96 124/124/113
f 125/125/114 124/124/113 107/107/96
f 107/107/96 101/101/90 125/125/114
f 102/102/91 125/125/114 101/101/90
f 125/125/114 102/102/91 126/126/115
f 103/103/92 126/126/115 102/102/91
f 126/126/115 103/103/92 127/127/116
f 104/104/93 127/127/116 103/103/92
f 127/127/116 104/104/93 128/128/117
f 105/105/94 128/128/117 104/104/93
f 128/128/117 105/105/94 117/117/106
f 124/124/113 125/125/114 129/129/118
f 126/126/115 129/129/118 125/125/114
f 129/129/118 126/126/115 130/130/119
f 127/127/116 130/130/119 126/126/115
f 130/130/119 127/127/116 131/131/120
f 128/128/117 131/131/120 127/127/116
f 131/131/120 128/128/117 132/132/121
f 117/117/106 132/132/121 128/128/117
f 129/129/118 133/133/122 124/124/113
f 134/134/123 124/124/113 133/133/122
f 133/133/122 129/129/118 135/135/124
f 130/130/119 135/135/124 129/129/118
f 135/135/124 130/130/119 136/136/125
f 131/131/120 136/136/125 130/130/119
f 136/136/125 131/131/120 137/137/126
f 132/132/121 137/137/126 131/131/120
f 133/133/122 16/16/16 134/134/123
f 14/14/14 134/134/123 16/16/16
f 134/134/123 14/14/14 138/138/127
f 138/138/127 123/123/112 134/134/123
f 123/123/112 138/138/127 122/122/111
f 139/139/128 122/122/111 138/138/127
f 122/122/111 139/139/128 121/121/110
f 140/140/129 121/121/110 139/139/128
f 121/121/110 140/140/129 120/120/109
f 141/141/130 120/120/109 140/140/129
f 120/120/109 141/141/130 118/118/107
f 142/142/131 118/118/107 141/141/130
f 118/118/107 142/142/131 119/119/108
f 143/143/132 119/119/108 142/142/131
f 142/142/131 4/4/4 143/143/132
f 2/2/2 143/143/132 4/4/4
f 4/4/4 142/142/131 6/6/6
f 141/141/130 6/6/6 142/142/131
f 6/6/6 141/141/130 8/8/8
f 140/140/129 8/8/8 141/141/130
f 139/139/128 10/10/10 140/140/129
f 8/8/8 140/140/129 10/10/10
f 10/10/10 139/139/128 12/12/12
f 138/138/127 12/12/12 139/139/128
f 12/12/12 138/138/127 14/14/14
f 124/124/113 134/134/123 123/123/112
f 16/16/16 133/133/122 18/18/18
f 135/135/124 18/18/18 133/133/122
f 18/18/18 135/135/124 20/20/20
f 136/136/125 20/20/20 135/135/124
f 20/20/20 136/136/125 22/22/22
f 137/137/126 22/22/22 136/136/125
f 144/144/133 145/145/133 146/146/133
f 147/147/133 146/146/133 145/145/133
f 145/145/133 144/144/133 148/148/133
f 149/149/133 148/148/133 144/144/133
f 148/148/133 149/149/133 150/150/133
f 151/151/133 150/150/133 149/149/133
f 150/150/133 151/151/133 152/152/133
f 153/153/133 152/152/133 151/151/133
f 152/152/133 153/153/133 154/154/133
f 155/155/133 154/154/133 153/153/133
f 154/154/133 155/155/133 156/156/133
f 157/157/133 156/156/133 155/155/133
f 146/146/133 147/147/133 158/158/133
f 159/159/133 158/158/133 147/147/133
f 158/158/133 159/159/133 160/160/133
f 161/161/133 160/160/133 159/159/133
f 160/160/133 161/161/133 162/162/133
f 163/163/133 162/162/133 161/161/133
f 162/162/133 163/163/133 164/164/133
f 165/165/133 164/164/133 163/163/133
f 164/164/133 165/165/133 166/166/133
f 167/167/133 166/166/133 165/165/133
f 166/166/133 167/167/133 168/168/133
f 169/169/133 168/168/133 167/167/133
f 170/170/134 171/171/133 172/172/135
f 173/173/136 174/174/133 170/170/134
f 175/175/137 176/176/133 173/173/136
f 177/177/138 178/178/133 175/175/137
f 179/179/139 180/180/133 177/177/138
f 181/181/140 182/182/133 179/179/139
f 172/172/135 183/183/133 184/184/141
f 184/184/141 185/185/133 186/186/142
f 186/186/142 187/187/133 188/188/143
f 188/188/143 189/189/133 190/190/144
f 190/190/144 191/191/133 192/192/145
f 192/192/145 193/193/133 194/194/140
